<svg xmlns="http://www.w3.org/2000/svg" width="256" height="256" viewBox="0 0 100 100"><rect width="100" height="100" rx="50" fill="#104a24"></rect><path d="M46.46 39.63L46.46 39.63Q47.08 39.29 48.06 39.05Q49.05 38.81 50.20 38.81L50.20 38.81Q53.94 38.81 54.69 40.99L54.69 40.99Q55.78 44.46 56.77 47.45Q57.75 50.44 58.64 53.26Q59.52 56.09 60.37 58.81Q61.22 61.53 62.04 64.45L62.04 64.45L62.38 64.45Q63.26 59.96 64.04 55.75Q64.82 51.53 65.61 47.31Q66.39 43.10 67.07 38.78Q67.75 34.46 68.43 29.77L68.43 29.77Q69.72 29.02 71.56 29.02L71.56 29.02Q73.19 29.02 74.24 29.74Q75.30 30.45 75.30 32.01L75.30 32.01Q75.30 33.37 74.92 36.06Q74.55 38.75 73.97 42.18Q73.39 45.61 72.58 49.49Q71.76 53.37 70.88 57.11Q69.99 60.85 69.07 64.14Q68.16 67.44 67.34 69.69L67.34 69.69Q66.59 70.23 65.27 70.60Q63.94 70.98 62.38 70.98L62.38 70.98Q60.40 70.98 59.04 70.40Q57.68 69.82 57.34 68.80L57.34 68.80Q56.73 67.17 55.88 64.76Q55.03 62.34 54.11 59.52Q53.20 56.70 52.28 53.57Q51.36 50.44 50.48 47.31L50.48 47.31Q49.66 50.37 48.71 53.60Q47.76 56.83 46.84 59.83Q45.92 62.82 45.07 65.40Q44.22 67.99 43.54 69.75L43.54 69.75Q42.86 70.23 41.60 70.60Q40.34 70.98 38.78 70.98L38.78 70.98Q36.81 70.98 35.41 70.37Q34.02 69.75 33.61 68.80L33.61 68.80Q33 67.44 32.25 64.86Q31.50 62.27 30.65 58.98Q29.80 55.68 28.92 51.90Q28.04 48.13 27.25 44.36Q26.47 40.58 25.79 37.05Q25.11 33.51 24.70 30.65L24.70 30.65Q25.32 30.04 26.37 29.53Q27.42 29.02 28.65 29.02L28.65 29.02Q31.84 29.02 32.46 32.22L32.46 32.22Q33.34 37.05 34.16 41.19Q34.97 45.34 35.72 49.18Q36.47 53.03 37.22 56.77Q37.96 60.51 38.85 64.45L38.85 64.45L39.12 64.45Q40.00 61.46 40.79 58.84Q41.57 56.22 42.42 53.40Q43.27 50.58 44.25 47.28Q45.24 43.98 46.46 39.63Z" fill="#fff"></path></svg>